<mxfile host="app.diagrams.net" modified="2023-09-19T21:26:59.849Z" agent="Mozilla/5.0 (Windows NT 10.0; Win64; x64) AppleWebKit/537.36 (KHTML, like Gecko) Chrome/117.0.0.0 Safari/537.36 Edg/117.0.2045.31" version="21.7.5" etag="j8hFj1AzBwgaoTUKnM8G" type="github">
  <diagram name="PÃ¡gina-1" id="nCZISueRBRu4yy1aLrz9">
    <mxGraphModel>
      <root>
        <mxCell id="0" />
        <mxCell id="1" parent="0" />
      </root>
    </mxGraphModel>
  </diagram>
</mxfile>
